<svg id="Group" xmlns="http://www.w3.org/2000/svg" width="49.724" height="49.724" viewBox="0 0 49.724 49.724">
  <path id="Pfad_281" data-name="Pfad 281" d="M24.862,49.724A24.862,24.862,0,1,0,0,24.862,24.862,24.862,0,0,0,24.862,49.724Z" fill="#fff"/>
  <path id="Pfad_282" data-name="Pfad 282" d="M39.542,26.708v10.25H33.6V27.395c0-2.4-.858-4.041-3.01-4.041a3.251,3.251,0,0,0-3.048,2.173,4.067,4.067,0,0,0-.2,1.448v9.982H21.4s.08-16.2,0-17.873h5.943v2.533c-.012.02-.029.039-.039.059h.039v-.059A5.9,5.9,0,0,1,32.7,18.664C36.611,18.664,39.542,21.219,39.542,26.708ZM15.185,10.469a3.1,3.1,0,1,0-.078,6.177h.039a3.1,3.1,0,1,0,.039-6.177Zm-3.01,26.489h5.941V19.084H12.175Z" transform="translate(0.175 0.155)" fill="#8b2c66"/>
</svg>
